<svg xmlns="http://www.w3.org/2000/svg" width="202.5" height="34.938" viewBox="0 0 140.28 23.782">
  <g id="Grupo_1" data-name="Grupo 1" transform="translate(-109 -77.231)">
    <g id="Grupo_1-2" data-name="Grupo 1" transform="translate(109 77.231)">
      <path id="Caminho_1" data-name="Caminho 1" d="M2260.378-643.79a29.723,29.723,0,0,1-.129,3.676c-.632,3.491-3.317,5.074-6.615,4.9-4.312-.23-6.091-3.362-5.843-7.159a1.69,1.69,0,0,1,1.688-1.556,1.71,1.71,0,0,1,1.684,1.57c.048.484-.007.978.043,1.462a2.7,2.7,0,0,0,2.931,2.635,2.672,2.672,0,0,0,2.817-2.751c.059-1.979.049-3.962-.011-5.941a2.581,2.581,0,0,0-1.719-2.521,1.522,1.522,0,0,1-1.057-1.985,1.616,1.616,0,0,1,2.136-.942,5.555,5.555,0,0,1,4.072,5.462C2260.4-645.965,2260.378-644.988,2260.378-643.79Z" transform="translate(-2246.295 654.059)" fill="#fff"/>
      <path id="Caminho_2" data-name="Caminho 2" d="M2369.719-631.908c0-1.492,0-2.984,0-4.477a1.657,1.657,0,0,1,2.584-1.527,1.325,1.325,0,0,0,1.255.067,4.683,4.683,0,0,1,5.528,1.556,5,5,0,0,1,.729,2.711c.022,2.089.013,4.178,0,6.267a1.5,1.5,0,0,1-1.668,1.653,1.5,1.5,0,0,1-1.693-1.63c-.014-2.008-.007-4.015,0-6.023a1.848,1.848,0,0,0-.856-1.886,2.653,2.653,0,0,0-2.272.191c-.392.16-.243.507-.245.777-.012,2.2-.006,4.4-.007,6.593,0,1.411-.473,1.973-1.662,1.979-1.206.006-1.7-.555-1.7-1.938Q2369.718-629.751,2369.719-631.908Z" transform="translate(-2328.359 644.434)" fill="#fff"/>
      <path id="Caminho_6" data-name="Caminho 6" d="M2247.871-657.277a1.613,1.613,0,0,1,1.649,1.158,1.443,1.443,0,0,1-.867,1.8,2.918,2.918,0,0,0-1.965,3.2c0,.3.02.6-.006.895a1.634,1.634,0,0,1-1.762,1.547,1.6,1.6,0,0,1-1.639-1.653,7.819,7.819,0,0,1,.914-4.475A5.151,5.151,0,0,1,2247.871-657.277Z" transform="translate(-2243.264 657.278)" fill="#fff"/>
      <path id="Caminho_9" data-name="Caminho 9" d="M2304.73-633.522c-.022-3.737-2.847-5.664-6.368-4.377a.979.979,0,0,1-1.019-.088,1.646,1.646,0,0,0-2.657,1.447q-.014,7.085,0,14.17a1.505,1.505,0,0,0,1.7,1.625,1.494,1.494,0,0,0,1.611-1.631c.009-1.22,0-2.441,0-3.815a5.925,5.925,0,0,0,2.879.413,3.818,3.818,0,0,0,3.65-3.04A19.527,19.527,0,0,0,2304.73-633.522Zm-3.336,3.294a2.048,2.048,0,0,1-3.228,1.483c-.243-.16-.16-.382-.162-.581-.011-.868,0-1.737,0-2.6,0-.841.026-1.684-.011-2.523a.634.634,0,0,1,.541-.752,7.4,7.4,0,0,1,1.028-.224,1.478,1.478,0,0,1,1.838,1.541C2301.448-632.67,2301.458-631.445,2301.395-630.227Z" transform="translate(-2277.863 644.525)" fill="#fff"/>
      <path id="Caminho_10" data-name="Caminho 10" d="M2336.076-630.551a9.034,9.034,0,0,0,3.081-.073,3.232,3.232,0,0,0,2.877-2.871,3.765,3.765,0,0,0-1.985-4.168,6.58,6.58,0,0,0-5.149-.148,3.842,3.842,0,0,0-2.714,3.917c-.006.651,0,1.3,0,1.954,0,.733-.018,1.466,0,2.2a3.714,3.714,0,0,0,2.261,3.482,7.752,7.752,0,0,0,5.948.047c1.2-.415,1.69-1.2,1.392-2.032s-1.258-1.074-2.451-.6a4.871,4.871,0,0,1-2.55.328,1.382,1.382,0,0,1-1.3-1.485C2335.482-630.439,2335.552-630.625,2336.076-630.551Zm-.481-4.049a1.76,1.76,0,0,1,2.224-.986,1.239,1.239,0,0,1,.934,1.555c-.106.835-.662,1.141-1.954,1.079l-.162-.009C2335.452-633.033,2335.183-633.457,2335.6-634.6Z" transform="translate(-2303.098 644.483)" fill="#fff"/>
    </g>
    <path id="Caminho_12" data-name="Caminho 12" d="M1.92-.576a.82.82,0,0,0,.816.792.784.784,0,0,0,.792-.792V-16.392a.8.8,0,0,0-.792-.792.837.837,0,0,0-.816.792Zm6.144-10.56a1.256,1.256,0,0,0-.984-.792.7.7,0,0,0-.7.7.652.652,0,0,0,.144.408A2.9,2.9,0,0,1,6.96-9V-.6a.707.707,0,0,0,.792.744A.7.7,0,0,0,8.52-.6V-9a4.687,4.687,0,0,0-.072-.816,4.954,4.954,0,0,1,2.928-1.152c1.608,0,2.448,1.152,2.448,3.144V-.6a.719.719,0,0,0,.792.744A.7.7,0,0,0,15.384-.6V-7.824c0-2.688-1.224-4.488-3.72-4.488A6.294,6.294,0,0,0,8.064-11.136ZM18.12-8.976c0,2.88,2.9,3.12,4.776,4.056a1.782,1.782,0,0,1,.984,1.752c0,1.416-.984,2.016-2.448,2.016a6.549,6.549,0,0,1-2.592-.6.357.357,0,0,0-.144-.024.727.727,0,0,0-.744.72c0,.984,2.256,1.224,3.48,1.224,2.616,0,3.96-1.3,3.96-3.408,0-2.88-2.592-3.12-4.488-4.056-.936-.5-1.272-.936-1.272-1.8,0-1.272.744-1.944,2.376-1.944a3.951,3.951,0,0,1,1.968.48.89.89,0,0,0,.36.1.682.682,0,0,0,.7-.7c0-.912-1.872-1.2-3.1-1.2C19.44-12.36,18.12-11.016,18.12-8.976Zm16.632,6.1a7.385,7.385,0,0,0,.048.792,5.383,5.383,0,0,1-2.9.912c-1.608,0-2.472-1.152-2.472-3.12V-11.52a.718.718,0,0,0-.768-.768.737.737,0,0,0-.792.768V-4.3c0,2.664,1.272,4.464,3.768,4.464a7.1,7.1,0,0,0,3.552-.936c.312.48.624.792,1.032.792a.7.7,0,0,0,.72-.672,1.234,1.234,0,0,0-.36-.672c-.144-.168-.264-.36-.264-1.56v-8.64a.718.718,0,0,0-.768-.768.725.725,0,0,0-.792.768ZM41.28-8.952a3.788,3.788,0,0,0-.024-.744V-9.72a4.516,4.516,0,0,1,3.312-.96.77.77,0,0,0,.768-.816c0-.432-.264-.768-1.1-.768A7.2,7.2,0,0,0,40.8-11.136c-.264-.432-.624-.744-.936-.744a.7.7,0,0,0-.72.7.652.652,0,0,0,.144.408,2.9,2.9,0,0,1,.432,1.824V-.6a.764.764,0,0,0,.792.768A.773.773,0,0,0,41.28-.6Zm11.9,2.424A10.083,10.083,0,0,0,50.52-6.96c-2.808,0-4.176,1.2-4.176,3.5v.1a3.252,3.252,0,0,0,3.6,3.528,4.818,4.818,0,0,0,3.432-1.44A2.166,2.166,0,0,0,55.2.1c.432,0,.912-.168.912-.648a.578.578,0,0,0-.528-.648c-.048,0-.1.024-.192.024q-.648,0-.648-.936V-7.536c0-3.144-1.176-4.824-4.128-4.824-1.608,0-3.384.408-3.288,1.416.024.288.168.624.528.624a1.029,1.029,0,0,0,.576-.192,3.334,3.334,0,0,1,1.944-.528c1.9,0,2.808.912,2.808,2.856Zm-2.688.84a9.256,9.256,0,0,1,2.688.456v2.88a4.306,4.306,0,0,1-2.928,1.176c-1.824,0-2.376-.912-2.376-2.16v-.1C47.88-4.656,48.288-5.688,50.5-5.688Zm8.832-5.448a1.256,1.256,0,0,0-.984-.792.7.7,0,0,0-.7.7.652.652,0,0,0,.144.408A2.9,2.9,0,0,1,58.224-9V-.6a.707.707,0,0,0,.792.744A.7.7,0,0,0,59.784-.6V-9a4.687,4.687,0,0,0-.072-.816,4.954,4.954,0,0,1,2.928-1.152c1.608,0,2.448,1.152,2.448,3.144V-.6a.719.719,0,0,0,.792.744A.7.7,0,0,0,66.648-.6V-7.824c0-2.688-1.224-4.488-3.72-4.488A6.294,6.294,0,0,0,59.328-11.136Zm9.84,6.96c0,2.448,1.3,4.344,4.272,4.344,1.08,0,3.24-.288,3.24-1.3a.666.666,0,0,0-.648-.672,1.334,1.334,0,0,0-.36.072H75.7a4.126,4.126,0,0,1-2.064.576c-2.088,0-2.9-1.128-2.9-3.024V-7.92c0-1.92.816-3.048,2.9-3.048a4.107,4.107,0,0,1,2.064.6h-.024a1.633,1.633,0,0,0,.36.048.645.645,0,0,0,.648-.648c0-1.032-2.16-1.32-3.24-1.32-2.976,0-4.272,1.92-4.272,4.368Zm13.32,3.024c-1.92,0-2.9-.984-2.9-2.448V-5.3A13.976,13.976,0,0,0,82.3-5.04c2.808,0,3.984-1.32,3.984-3.48,0-2.328-1.272-3.84-3.888-3.84-2.832,0-4.368,1.728-4.368,4.008v4.608c0,2.208,1.536,3.912,4.224,3.912,1.272,0,3.816-.336,3.816-1.416a.686.686,0,0,0-.672-.672.7.7,0,0,0-.264.072A5.818,5.818,0,0,1,82.488-1.152ZM84.744-8.52c0,1.128-.336,2.208-2.352,2.208A24.05,24.05,0,0,1,79.584-6.5v-2.04c0-1.488,1.008-2.448,2.736-2.448A2.154,2.154,0,0,1,84.744-8.52Z" transform="translate(163 95.766)" fill="#fff"/>
  </g>
</svg>
